<?xml version="1.0" encoding="UTF-8"?>
<mxfile host="app.diagrams.net" modified="2025-03-04T16:54:00.000Z" agent="Mozilla/5.0" version="21.1.1" type="device">
  <diagram id="data-flow-diagram" name="Data Flow Diagram">
    <mxGraphModel dx="1422" dy="798" grid="1" gridSize="10" guides="1" tooltips="1" connect="1" arrows="1" fold="1" page="1" pageScale="1" pageWidth="1169" pageHeight="827" math="0" shadow="0">
      <root>
        <mxCell id="0" />
        <mxCell id="1" parent="0" />
        
        <!-- External Entities -->
        <mxCell id="2" value="Patient" style="rounded=0;whiteSpace=wrap;html=1;" vertex="1" parent="1">
          <mxGeometry x="40" y="200" width="120" height="60" as="geometry" />
        </mxCell>
        
        <mxCell id="3" value="Doctor" style="rounded=0;whiteSpace=wrap;html=1;" vertex="1" parent="1">
          <mxGeometry x="40" y="400" width="120" height="60" as="geometry" />
        </mxCell>
        
        <mxCell id="4" value="Caregiver" style="rounded=0;whiteSpace=wrap;html=1;" vertex="1" parent="1">
          <mxGeometry x="960" y="200" width="120" height="60" as="geometry" />
        </mxCell>
        
        <!-- Processes -->
        <mxCell id="5" value="1.0&#xa;User&#xa;Authentication" style="ellipse;whiteSpace=wrap;html=1;aspect=fixed;" vertex="1" parent="1">
          <mxGeometry x="240" y="190" width="80" height="80" as="geometry" />
        </mxCell>
        
        <mxCell id="6" value="2.0&#xa;Medication&#xa;Management" style="ellipse;whiteSpace=wrap;html=1;aspect=fixed;" vertex="1" parent="1">
          <mxGeometry x="400" y="300" width="80" height="80" as="geometry" />
        </mxCell>
        
        <mxCell id="7" value="3.0&#xa;Diagnosis&#xa;Management" style="ellipse;whiteSpace=wrap;html=1;aspect=fixed;" vertex="1" parent="1">
          <mxGeometry x="400" y="440" width="80" height="80" as="geometry" />
        </mxCell>
        
        <mxCell id="8" value="4.0&#xa;Health&#xa;Monitoring" style="ellipse;whiteSpace=wrap;html=1;aspect=fixed;" vertex="1" parent="1">
          <mxGeometry x="560" y="190" width="80" height="80" as="geometry" />
        </mxCell>
        
        <mxCell id="9" value="5.0&#xa;Notification&#xa;System" style="ellipse;whiteSpace=wrap;html=1;aspect=fixed;" vertex="1" parent="1">
          <mxGeometry x="720" y="300" width="80" height="80" as="geometry" />
        </mxCell>
        
        <!-- Data Stores -->
        <mxCell id="10" value="D1 Users" style="shape=partialRectangle;whiteSpace=wrap;html=1;left=0;right=0;fillColor=none;" vertex="1" parent="1">
          <mxGeometry x="220" y="320" width="120" height="40" as="geometry" />
        </mxCell>
        
        <mxCell id="11" value="D2 Medications" style="shape=partialRectangle;whiteSpace=wrap;html=1;left=0;right=0;fillColor=none;" vertex="1" parent="1">
          <mxGeometry x="380" y="600" width="120" height="40" as="geometry" />
        </mxCell>
        
        <mxCell id="12" value="D3 Diagnoses" style="shape=partialRectangle;whiteSpace=wrap;html=1;left=0;right=0;fillColor=none;" vertex="1" parent="1">
          <mxGeometry x="540" y="600" width="120" height="40" as="geometry" />
        </mxCell>
        
        <mxCell id="13" value="D4 Health Vitals" style="shape=partialRectangle;whiteSpace=wrap;html=1;left=0;right=0;fillColor=none;" vertex="1" parent="1">
          <mxGeometry x="700" y="600" width="120" height="40" as="geometry" />
        </mxCell>
        
        <!-- Data Flows -->
        <!-- Authentication Flows -->
        <mxCell id="14" value="Login Credentials" style="endArrow=classic;html=1;exitX=1;exitY=0.5;entryX=0;entryY=0.5;" edge="1" parent="1" source="2" target="5">
          <mxGeometry relative="1" as="geometry" />
        </mxCell>
        
        <mxCell id="15" value="Auth Token" style="endArrow=classic;html=1;exitX=0.5;exitY=1;entryX=0.5;entryY=0;" edge="1" parent="1" source="5" target="10">
          <mxGeometry relative="1" as="geometry" />
        </mxCell>
        
        <!-- Medication Flows -->
        <mxCell id="16" value="Prescribe" style="endArrow=classic;html=1;exitX=1;exitY=0.5;entryX=0;entryY=0.5;" edge="1" parent="1" source="3" target="6">
          <mxGeometry relative="1" as="geometry" />
        </mxCell>
        
        <mxCell id="17" value="Store" style="endArrow=classic;html=1;exitX=0.5;exitY=1;entryX=0.5;entryY=0;" edge="1" parent="1" source="6" target="11">
          <mxGeometry relative="1" as="geometry" />
        </mxCell>
        
        <!-- Diagnosis Flows -->
        <mxCell id="18" value="Create" style="endArrow=classic;html=1;exitX=1;exitY=0.5;entryX=0;entryY=0.5;" edge="1" parent="1" source="3" target="7">
          <mxGeometry relative="1" as="geometry" />
        </mxCell>
        
        <mxCell id="19" value="Store" style="endArrow=classic;html=1;exitX=0.5;exitY=1;entryX=0.5;entryY=0;" edge="1" parent="1" source="7" target="12">
          <mxGeometry relative="1" as="geometry" />
        </mxCell>
        
        <!-- Health Monitoring Flows -->
        <mxCell id="20" value="Record Vitals" style="endArrow=classic;html=1;exitX=1;exitY=0.5;entryX=0;entryY=0.5;" edge="1" parent="1" source="2" target="8">
          <mxGeometry relative="1" as="geometry" />
        </mxCell>
        
        <mxCell id="21" value="Store" style="endArrow=classic;html=1;exitX=0.5;exitY=1;entryX=0.5;entryY=0;" edge="1" parent="1" source="8" target="13">
          <mxGeometry relative="1" as="geometry" />
        </mxCell>
        
        <!-- Notification Flows -->
        <mxCell id="22" value="Send Alerts" style="endArrow=classic;html=1;exitX=0;exitY=0.5;entryX=1;entryY=0.5;" edge="1" parent="1" source="9" target="2">
          <mxGeometry relative="1" as="geometry" />
        </mxCell>
        
        <mxCell id="23" value="Monitor" style="endArrow=classic;html=1;exitX=0;exitY=0.5;entryX=1;entryY=0.5;" edge="1" parent="1" source="4" target="8">
          <mxGeometry relative="1" as="geometry" />
        </mxCell>
        
      </root>
    </mxGraphModel>
  </diagram>
</mxfile>
